Coordinates
version=1
nRows=4
nColumns=107
inDegrees=yes

Units are S.I. units (second, meters, Newtons, ...)
If the header above contains a line with 'inDegrees', this indicates whether rotational values are in degrees (yes) or radians (no).

endheader
time	sternoclavicular_r2	sternoclavicular_r3	unrotscap_r3	unrotscap_r2	acromioclavicular_r2	acromioclavicular_r3	acromioclavicular_r1	unrothum_r1	unrothum_r3	unrothum_r2	elv_angle	shoulder_elv	shoulder1_r2	shoulder_rot	elbow_flexion	pro_sup	deviation	flexion	proximal_distal_r1	proximal_distal_r3	cmc_flexion	cmc_abduction	mp_flexion	ip_flexion	mcp2_flexion	mcp2_abduction	pm2_flexion	md2_flexion	mcp3_flexion	mcp3_abduction	pm3_flexion	md3_flexion	mcp4_flexion	mcp4_abduction	pm4_flexion	md4_flexion	mcp5_flexion	mcp5_abduction	pm5_flexion	md5_flexion	bicpt_tx	bicpt_ty	bicpt_tz	bicpt2_tx	bicpt2_ty	bicpt2_tz	ptpt_tx	ptpt_ty	ptpt_tz	FCUpt_tx	FCUpt_ty	FCUpt_tz	EDCpt_tx	EDCpt_ty	EDCpt_tz	APLpt_tx	APLpt_ty	APLpt_tz	FPLpt_tx	FPLpt_ty	FPLpt_tz	FPLpt2_tx	FPLpt2_ty	FPLpt2_tz	PEC1pt2_tx	PEC1pt2_ty	PEC1pt2_tz	PEC1pt3_tx	PEC1pt3_ty	PEC1pt3_tz	PEC2pt2_tx	PEC2pt2_ty	PEC2pt2_tz	PEC2pt3_tx	PEC2pt3_ty	PEC2pt3_tz	PEC3pt2_tx	PEC3pt2_ty	PEC3pt2_tz	PEC3pt3_tx	PEC3pt3_ty	PEC3pt3_tz	DELT2pt2a_tx	DELT2pt2a_ty	DELT2pt2a_tz	DELT2pt2_tx	DELT2pt2_ty	DELT2pt2_tz	LAT1pt2_tx	LAT1pt2_ty	LAT1pt2_tz	LAT1pt3_tx	LAT1pt3_ty	LAT1pt3_tz	LAT2pt2_tx	LAT2pt2_ty	LAT2pt2_tz	LAT2pt3_tx	LAT2pt3_ty	LAT2pt3_tz	LAT3pt2_tx	LAT3pt2_ty	LAT3pt2_tz	LAT3pt3_tx	LAT3pt3_ty	LAT3pt3_tz
      0.66666667	     -0.32968763	      0.13964012	     -0.13964012	      0.32968763	     -0.06675504	      0.53949075	      0.24249738	     -0.24249738	     -0.53949075	      0.06675504	     98.08415779	     78.05647783	     -1.71189150	    -15.21589788	     27.89291515	     29.91136247	      0.09951572	     -0.81395651	      0.12695151	     -0.40697825	      8.77066955	    -13.05528379	    -15.92201022	     -9.21686611	     23.05814779	      6.37920531	     29.68511916	    -11.92884055	     23.00364937	      0.09492026	     25.23849899	     21.37526353	     24.11990849	     -3.64490048	     16.31912059	     25.18878985	     24.16633487	     -4.18306758	      6.96378534	      5.07712321	      0.00082261	     -0.03079695	     -0.00481495	      0.01643922	     -0.01777725	     -0.00847571	      0.00533989	     -0.06632910	     -0.00245952	      0.00678022	     -0.18369049	     -0.00027650	     -0.00358936	      0.00098554	      0.00019128	      0.00027800	      0.00011120	      0.00055599	      0.00035583	      0.00106750	      0.00060047	      0.00003418	     -0.00017654	     -0.00021185	      0.00255852	      0.00897650	      0.00624452	     -0.00836940	      0.02020797	     -0.01916722	      0.00255852	      0.00897650	      0.00624452	      0.00056374	      0.01873357	     -0.00984380	      0.00401881	      0.00499172	      0.01613826	      0.00000000	      0.00815120	      0.00000000	     -0.00732864	     -0.03386787	     -0.00672305	      0.01086268	     -0.00028975	     -0.00182463	     -0.00091066	      0.01526439	     -0.00624452	      0.00251516	      0.02202929	     -0.01821319	     -0.00611443	      0.01322625	     -0.00559405	     -0.01274924	      0.02792690	     -0.03126598	     -0.02393734	      0.01478738	     -0.00750210	     -0.01587150	      0.03226337	     -0.03907164
      0.70000000	     -0.32968320	      0.13963824	     -0.13963824	      0.32968320	     -0.06675414	      0.53948349	      0.24249412	     -0.24249412	     -0.53948349	      0.06675414	     98.09432834	     78.05542824	     -1.71206901	    -15.21333938	     27.89904322	     29.91110685	      0.09949962	     -0.81395455	      0.12693162	     -0.40697727	      8.77075589	    -13.05511122	    -15.92216082	     -9.21676456	     23.05823584	      6.37940141	     29.68516863	    -11.92877902	     23.00419836	      0.09501184	     25.23849034	     21.37508208	     24.12018244	     -3.64481360	     16.31925380	     25.18859316	     24.16708378	     -4.18298940	      6.96413162	      5.07713305	      0.00082281	     -0.03079766	     -0.00481506	      0.01643913	     -0.01777891	     -0.00847568	      0.00533991	     -0.06632908	     -0.00245950	      0.00678021	     -0.18369049	     -0.00027647	     -0.00358932	      0.00098555	      0.00019127	      0.00027796	      0.00011118	      0.00055592	      0.00035579	      0.00106736	      0.00060039	      0.00003418	     -0.00017653	     -0.00021184	      0.00255849	      0.00897638	      0.00624444	     -0.00836928	      0.02020770	     -0.01916696	      0.00255849	      0.00897638	      0.00624444	      0.00056373	      0.01873332	     -0.00984367	      0.00401877	      0.00499165	      0.01613817	      0.00000000	      0.00815098	      0.00000000	     -0.00732854	     -0.03386741	     -0.00672286	      0.01086086	     -0.00028968	     -0.00182417	     -0.00091065	      0.01526419	     -0.00624444	      0.00251512	      0.02202900	     -0.01821295	     -0.00611435	      0.01322607	     -0.00559398	     -0.01274906	      0.02792652	     -0.03126556	     -0.02393702	      0.01478718	     -0.00750200	     -0.01587128	      0.03226294	     -0.03907111
      0.73333333	     -0.33051778	      0.13999173	     -0.13999173	      0.33051778	     -0.06692313	      0.54084917	      0.24310798	     -0.24310798	     -0.54084917	      0.06692313	     98.00869210	     78.25302250	     -1.71057437	    -14.23551228	     27.68199715	     28.23792968	      0.09027121	     -0.85349680	      0.11584148	     -0.42674840	      9.10151180	    -12.33231900	    -17.46275169	     -8.02877579	     23.86282232	      6.29370521	     29.45017906	    -11.50374792	     24.09705820	     -0.12626081	     24.36075652	     19.61303586	     24.68976832	     -3.86736573	     16.56909129	     23.11300492	     24.47907902	     -4.41517618	      7.00366907	      5.05703725	      0.00081563	     -0.03077278	     -0.00481105	      0.01639419	     -0.01771995	     -0.00862867	      0.00546354	     -0.06624914	     -0.00232472	      0.00661740	     -0.18372010	     -0.00025083	     -0.00338854	      0.00092312	      0.00019337	      0.00026321	      0.00010528	      0.00052642	      0.00033691	      0.00101072	      0.00056853	      0.00003379	     -0.00018152	     -0.00021782	      0.00256496	      0.00899911	      0.00626025	     -0.00839047	      0.02025886	     -0.01921548	      0.00256496	      0.00899911	      0.00626025	      0.00056516	      0.01878074	     -0.00986858	      0.00402611	      0.00500429	      0.01615553	      0.00000000	      0.00819262	      0.00000000	     -0.00734710	     -0.03395315	     -0.00675741	      0.01022761	     -0.00026186	     -0.00157117	     -0.00091295	      0.01530283	     -0.00626025	      0.00252149	      0.02208476	     -0.01825905	     -0.00612983	      0.01325955	     -0.00560814	     -0.01278134	      0.02799722	     -0.03134471	     -0.02399761	      0.01482461	     -0.00752099	     -0.01591146	      0.03234461	     -0.03917002
      0.76666667	     -0.33051604	      0.13999100	     -0.13999100	      0.33051604	     -0.06692277	      0.54084633	      0.24310670	     -0.24310670	     -0.54084633	      0.06692277	     98.00242548	     78.25261047	     -1.71046500	    -14.22570992	     27.69283649	     28.24757891	      0.08993203	     -0.85338333	      0.11543064	     -0.42669167	      9.11863569	    -12.31238210	    -17.45120745	     -8.02449637	     23.86831763	      6.28599737	     29.44860591	    -11.50406927	     24.08336630	     -0.12352315	     24.37922083	     19.62614201	     24.66898540	     -3.85976470	     16.56875723	     23.11668546	     24.49225554	     -4.41950554	      7.00789571	      5.05726956	      0.00081599	     -0.03077402	     -0.00481125	      0.01639446	     -0.01772289	     -0.00862779	      0.00546282	     -0.06624960	     -0.00232549	      0.00661833	     -0.18371993	     -0.00025098	     -0.00338970	      0.00092348	      0.00019336	      0.00026325	      0.00010530	      0.00052649	      0.00033695	      0.00101086	      0.00056861	      0.00003377	     -0.00018177	     -0.00021813	      0.00256495	      0.00899906	      0.00626021	     -0.00839043	      0.02025875	     -0.01921538	      0.00256495	      0.00899906	      0.00626021	      0.00056516	      0.01878064	     -0.00986853	      0.00402609	      0.00500426	      0.01615549	      0.00000000	      0.00819253	      0.00000000	     -0.00734706	     -0.03395297	     -0.00675733	      0.01022120	     -0.00026158	     -0.00156873	     -0.00091295	      0.01530275	     -0.00626021	      0.00252148	      0.02208464	     -0.01825896	     -0.00612979	      0.01325948	     -0.00560811	     -0.01278127	      0.02799707	     -0.03134454	     -0.02399749	      0.01482453	     -0.00752095	     -0.01591138	      0.03234444	     -0.03916981
